<?xml version="1.0" standalone="no"?>
<!DOCTYPE svg PUBLIC "-//W3C//DTD SVG 20010904//EN"
 "http://www.w3.org/TR/2001/REC-SVG-20010904/DTD/svg10.dtd">
<svg version="1.0" xmlns="http://www.w3.org/2000/svg"
 width="1200.000000pt" height="1678.000000pt" viewBox="0 0 1200.000000 1678.000000"
 preserveAspectRatio="xMidYMid meet">
<metadata>
Created by potrace 1.15, written by Peter Selinger 2001-2017
</metadata>
<g transform="translate(0.000000,1678.000000) scale(0.100000,-0.100000)"
fill="#000000" stroke="none">
<path d="M5825 16753 c-644 -26 -1283 -196 -1880 -499 -1663 -844 -2998 -2732
-3584 -5069 -448 -1789 -450 -3789 -5 -5568 180 -719 408 -1345 724 -1982 917
-1857 2305 -3104 3875 -3485 953 -232 1922 -146 2840 252 1142 494 2165 1486
2922 2833 118 210 325 632 426 870 757 1782 1012 3907 716 5970 -330 2299
-1351 4308 -2804 5519 -964 803 -2087 1206 -3230 1159z m445 -223 c698 -51
1336 -253 1955 -618 1408 -831 2540 -2449 3119 -4457 207 -719 328 -1425 398
-2315 18 -225 18 -1263 0 -1495 -93 -1229 -319 -2256 -714 -3243 -855 -2139
-2329 -3618 -4023 -4038 -343 -85 -632 -119 -1005 -119 -446 1 -797 52 -1210
176 -521 157 -1053 433 -1510 783 -1350 1031 -2355 2764 -2794 4817 -177 824
-256 1655 -243 2539 11 756 83 1428 228 2129 559 2702 2091 4827 4009 5564
572 220 1214 319 1790 277z"/>
<path d="M5925 16129 c-34 -19 -45 -41 -45 -87 0 -86 89 -133 145 -77 34 33
35 103 3 139 -26 30 -74 41 -103 25z"/>
<path d="M5843 15863 l-83 -4 0 -39 0 -40 44 0 c24 0 48 -6 54 -12 6 -8 11
-190 13 -478 l4 -465 -50 -5 c-47 -5 -50 -7 -53 -35 -1 -16 1 -35 5 -41 6 -8
68 -10 211 -6 l202 5 0 44 0 44 -50 -2 c-27 -2 -52 -1 -54 2 -6 6 -26 931 -20
941 3 4 27 8 55 8 l49 0 0 45 0 45 -122 -2 c-68 -1 -160 -4 -205 -5z"/>
<path d="M6680 15804 c-19 -50 -13 -63 35 -75 31 -8 45 -17 45 -28 0 -9 -60
-212 -133 -451 -129 -420 -134 -435 -158 -434 -13 1 -38 5 -55 9 -28 6 -32 4
-38 -18 -3 -14 -9 -32 -12 -40 -4 -12 30 -27 169 -71 96 -31 181 -56 190 -56
8 0 17 13 21 31 9 47 9 48 -28 63 l-34 14 51 169 c47 159 53 171 85 192 19 13
38 19 42 14 12 -13 104 -452 97 -459 -4 -4 -18 -2 -31 4 -29 13 -43 1 -52 -46
l-6 -30 133 -42 c74 -23 156 -48 183 -57 50 -16 65 -10 66 24 0 6 3 18 6 27 4
10 -5 19 -29 30 -19 8 -38 22 -40 33 -10 32 -147 626 -147 635 0 14 379 258
400 258 10 0 31 -5 46 -10 33 -13 40 -6 49 41 l6 35 -149 47 c-82 26 -156 47
-164 47 -9 0 -18 -10 -22 -22 -12 -47 -7 -57 34 -69 22 -7 40 -15 40 -18 -1
-5 -422 -291 -441 -299 -9 -4 108 379 120 391 5 5 26 3 50 -4 47 -14 58 -8 67
38 l6 31 -148 47 c-82 25 -169 53 -193 61 -55 18 -50 19 -61 -12z"/>
<path d="M5245 15805 c-22 -8 -86 -28 -142 -45 -110 -34 -115 -38 -93 -94 9
-25 9 -25 57 -11 26 8 51 11 55 7 4 -4 52 -158 108 -342 55 -184 103 -341 105
-347 2 -7 3 -13 1 -13 -5 0 -418 438 -536 568 -51 56 -100 102 -109 101 -9 0
-77 -19 -151 -43 l-135 -42 2 -33 c2 -47 13 -55 62 -40 28 8 45 9 52 2 13 -13
278 -886 272 -896 -2 -4 -24 -12 -49 -18 -47 -12 -50 -18 -33 -67 13 -37 0
-39 192 22 l132 42 -3 35 c-4 47 -12 52 -65 37 -26 -6 -49 -10 -51 -7 -6 6
-217 702 -213 704 2 2 542 -572 599 -638 l33 -38 94 28 c51 15 95 33 98 39 2
7 -61 229 -141 494 -80 264 -146 485 -146 490 0 4 19 15 43 22 45 16 57 40 37
77 -12 24 -20 25 -75 6z"/>
<path d="M3798 15172 c-70 -53 -127 -102 -127 -109 -1 -7 10 -24 23 -40 l24
-27 35 26 c19 15 36 25 38 23 2 -2 1 -81 -2 -177 -4 -95 -7 -217 -8 -272 l-1
-98 -125 168 c-69 93 -125 173 -125 179 0 5 16 21 35 34 19 13 35 29 35 35 0
20 -30 56 -48 56 -18 0 -322 -228 -322 -242 0 -18 33 -58 48 -58 8 0 29 11 47
24 17 13 36 21 41 18 17 -11 547 -726 551 -742 2 -8 -12 -26 -32 -40 -41 -30
-43 -40 -12 -76 l24 -27 144 108 c79 59 148 111 153 116 8 7 -29 79 -41 79 -3
0 -18 -10 -35 -21 -17 -12 -33 -18 -38 -13 -5 5 -54 69 -109 143 -86 115 -101
140 -101 172 0 21 4 40 9 43 4 3 106 -38 226 -91 l217 -97 -27 -23 c-29 -25
-28 -48 4 -77 19 -17 26 -13 168 94 81 61 149 116 151 123 1 7 -9 25 -22 42
-24 29 -24 30 -45 11 -11 -10 -31 -18 -43 -18 -17 0 -599 243 -616 257 -1 1 4
107 12 236 l13 233 32 26 c17 15 31 32 31 39 0 18 -31 61 -44 60 -6 0 -68 -44
-138 -97z"/>
<path d="M8482 14937 c-29 -31 -28 -45 10 -84 l31 -32 -149 -156 c-320 -334
-383 -406 -417 -474 -63 -128 -39 -226 86 -358 116 -122 227 -160 348 -118 73
26 126 72 384 342 136 142 251 259 255 261 5 2 24 -11 43 -27 l34 -31 27 21
c14 11 26 29 26 38 0 18 -209 221 -227 221 -13 0 -53 -44 -53 -57 0 -7 10 -20
23 -30 13 -10 26 -24 31 -31 10 -16 -466 -514 -541 -564 -61 -42 -121 -50
-171 -24 -37 20 -99 85 -111 119 -35 92 -6 137 290 448 138 145 255 268 260
274 6 5 24 -6 49 -30 l40 -39 25 24 c14 13 25 30 25 38 0 13 -269 281 -289
290 -4 1 -17 -8 -29 -21z"/>
<path d="M8824 14946 c-65 -29 -85 -106 -39 -151 56 -57 160 -9 160 74 0 68
-58 105 -121 77z"/>
<path d="M9009 14711 c-36 -37 -41 -99 -9 -131 32 -32 94 -27 131 9 36 37 41
99 9 131 -32 32 -94 27 -131 -9z"/>
<path d="M2850 14333 c-24 -32 -129 -165 -233 -296 -103 -130 -187 -244 -185
-253 2 -8 16 -23 31 -32 29 -17 29 -17 62 22 l33 39 358 -293 c198 -161 360
-298 362 -305 2 -7 -9 -26 -23 -43 -14 -16 -25 -35 -25 -40 0 -11 48 -52 60
-52 10 0 480 587 480 598 0 11 -226 202 -238 202 -11 0 -92 -103 -92 -117 0
-5 27 -33 60 -62 85 -74 83 -91 -16 -213 -41 -51 -80 -93 -86 -93 -10 0 -317
246 -318 255 0 3 20 28 44 55 l44 50 45 -32 c25 -18 49 -33 54 -33 12 0 73 75
73 88 0 8 -126 118 -249 216 l-24 20 -24 -30 c-61 -74 -61 -72 -13 -113 49
-42 49 -53 -4 -115 l-34 -40 -146 123 -146 122 61 79 c118 153 129 157 228 80
35 -27 67 -48 71 -45 10 6 90 111 90 118 0 7 -242 197 -250 197 -3 0 -25 -26
-50 -57z"/>
<path d="M5790 14194 c-114 -14 -279 -47 -370 -73 -646 -187 -1235 -666 -1725
-1406 -873 -1317 -1285 -3289 -1099 -5255 160 -1698 765 -3192 1649 -4075 455
-454 963 -723 1495 -790 177 -23 464 -16 625 14 241 45 411 103 636 217 1237
625 2168 2381 2398 4524 40 372 46 513 46 1045 0 532 -6 664 -46 1035 -232
2148 -1160 3899 -2398 4524 -223 112 -414 177 -656 221 -87 16 -472 29 -555
19z m578 -248 c179 -38 317 -87 497 -175 286 -141 476 -281 746 -550 334 -334
598 -709 843 -1201 396 -794 643 -1705 741 -2730 53 -567 53 -1215 -1 -1800
-133 -1439 -603 -2748 -1300 -3620 -127 -159 -410 -446 -544 -553 -308 -244
-653 -413 -985 -483 -150 -32 -421 -43 -571 -25 -394 49 -784 223 -1144 511
-123 98 -364 336 -471 465 -243 290 -440 598 -638 995 -361 726 -605 1590
-711 2515 -70 617 -79 1355 -24 1955 155 1702 752 3172 1632 4022 413 399 857
628 1357 702 17 2 125 3 240 1 181 -3 227 -7 333 -29z"/>
<path d="M6812 12293 c-80 -55 -260 -211 -406 -353 -862 -840 -1325 -1874
-1326 -2962 0 -106 -2 -118 -17 -118 -10 0 -28 -3 -40 -6 -22 -6 -23 -4 -23
62 -1 207 -93 374 -245 446 -122 57 -257 61 -422 11 -136 -40 -139 -40 -158
-3 -9 18 -17 53 -17 79 0 95 -8 131 -33 147 -38 25 -79 9 -153 -60 -104 -96
-131 -116 -161 -116 -30 0 -61 27 -61 52 0 53 -78 43 -154 -20 -264 -218 -391
-326 -394 -332 -2 -5 5 -22 16 -39 l19 -31 203 143 204 143 23 -27 c13 -15 23
-29 23 -32 0 -2 -56 -48 -125 -102 -117 -92 -124 -100 -112 -119 29 -43 37
-41 184 44 l142 83 45 -49 c49 -53 50 -69 14 -129 -10 -18 -27 -65 -38 -106
-10 -41 -29 -103 -41 -139 -27 -80 -37 -268 -20 -353 26 -121 116 -243 219
-296 139 -71 332 -66 498 13 57 27 71 31 68 17 -1 -9 -6 -33 -9 -53 -6 -36
-14 -43 -183 -154 -104 -69 -202 -142 -237 -178 l-61 -61 -52 -267 c-30 -151
-72 -331 -98 -415 -26 -83 -48 -178 -51 -216 -5 -62 -4 -70 18 -93 34 -37 72
-54 118 -54 50 0 61 17 61 92 0 30 18 133 41 229 152 654 132 599 261 725 40
39 113 101 162 138 l89 66 25 -22 24 -23 -44 -38 c-23 -21 -77 -63 -118 -94
-84 -63 -102 -82 -130 -135 -17 -32 -59 -240 -100 -498 -7 -41 -34 -149 -60
-240 -77 -265 -80 -292 -38 -352 20 -29 109 -88 133 -88 19 0 30 25 50 123 9
43 23 94 31 112 31 74 140 518 179 730 10 50 25 106 35 126 24 45 132 147 219
205 l67 44 43 -15 c24 -8 54 -15 67 -15 24 0 44 -26 44 -58 0 -12 -27 -37 -77
-72 -42 -29 -85 -62 -95 -72 -25 -25 -23 -67 12 -166 34 -99 52 -230 75 -552
21 -284 32 -385 45 -410 18 -34 70 -60 121 -60 28 0 49 5 52 13 13 35 -28 597
-64 884 -27 215 -25 222 84 309 45 36 101 77 125 91 41 24 44 25 62 8 11 -10
20 -24 20 -31 0 -7 -30 -39 -67 -71 -137 -119 -133 -114 -133 -182 0 -33 4
-82 10 -108 11 -59 29 -366 39 -683 5 -178 10 -240 21 -258 19 -28 66 -50 123
-58 41 -6 46 -4 52 16 12 39 7 252 -15 560 -11 162 -20 333 -20 380 0 82 1 87
40 146 60 92 184 230 233 259 24 14 55 25 69 25 35 0 71 -31 71 -61 0 -14 -51
-129 -112 -255 -83 -170 -111 -239 -111 -268 0 -21 18 -108 40 -195 53 -203
85 -379 104 -571 24 -233 56 -719 62 -945 7 -238 14 -286 56 -378 27 -58 47
-82 121 -149 108 -97 171 -138 212 -138 87 0 68 92 -49 236 -30 38 -69 96 -86
129 -39 78 -47 157 -60 650 -12 452 -29 633 -102 1045 -55 316 -39 488 55 588
35 36 63 41 72 13 3 -11 -6 -97 -20 -192 -30 -202 -29 -217 35 -599 54 -322
86 -726 96 -1205 l5 -250 29 -55 c63 -121 130 -260 169 -350 52 -121 71 -152
114 -184 68 -52 197 -38 205 22 7 49 -47 153 -165 314 -71 97 -87 129 -109
226 -31 135 -45 291 -51 577 l-6 289 60 -59 c33 -33 85 -73 115 -88 l55 -28 6
-79 c3 -54 13 -96 30 -134 29 -63 109 -153 162 -181 30 -17 33 -23 27 -45 -4
-14 -7 -56 -7 -95 0 -90 25 -155 84 -218 87 -93 199 -129 402 -128 303 1 532
99 608 261 38 82 36 186 -6 270 l-30 60 32 20 c49 30 124 115 148 168 18 38
22 65 22 147 0 88 -3 107 -27 158 -15 32 -39 72 -52 88 l-25 29 79 78 c90 89
132 164 150 271 28 168 -54 350 -202 448 l-37 25 34 46 c99 139 110 323 27
475 -57 106 -186 209 -311 248 -49 15 -56 20 -52 41 2 12 4 75 5 138 1 111 0
118 -32 182 -81 164 -298 288 -509 289 l-76 1 94 51 c236 131 424 272 615 462
266 265 375 444 499 820 57 173 94 324 122 505 26 166 26 731 0 905 -67 448
-194 726 -375 819 -49 26 -121 31 -164 13 -48 -20 -390 -246 -493 -325 -43
-34 -82 -62 -86 -62 -4 0 -10 17 -14 38 -24 132 -168 690 -186 718 -41 67
-110 81 -177 37z m168 -570 l79 -338 -67 -59 c-113 -99 -382 -375 -474 -486
-482 -581 -776 -1206 -885 -1883 l-17 -109 -43 7 c-85 13 -219 25 -277 25
l-59 0 6 223 c8 294 34 483 103 762 201 807 703 1583 1414 2189 l115 98 13
-46 c7 -25 48 -197 92 -383z m906 5 c46 -36 71 -68 109 -140 164 -309 231
-973 149 -1498 -32 -208 -104 -422 -224 -665 -180 -366 -613 -763 -1085 -995
-289 -143 -533 -208 -807 -217 l-158 -6 0 56 c0 75 23 192 72 361 175 609 503
1085 1005 1458 143 107 263 180 448 273 180 91 263 125 485 201 85 29 149 53
142 53 -25 2 -249 -58 -376 -99 -484 -158 -883 -396 -1212 -724 -308 -309
-511 -639 -650 -1061 -41 -122 -43 -97 -10 115 92 586 271 1051 589 1530 271
409 662 813 1087 1124 131 96 379 256 396 256 6 0 24 -10 40 -22z m-3841
-2372 c16 -12 17 -20 9 -77 l-9 -64 -40 3 c-49 4 -85 28 -101 68 -16 38 -7 52
42 69 50 18 76 18 99 1z m621 -116 c78 -35 129 -87 168 -169 28 -59 31 -76 31
-161 0 -165 -60 -303 -188 -432 -173 -174 -429 -215 -604 -98 -97 65 -144 145
-151 261 -5 94 9 163 54 256 66 138 178 254 309 319 139 69 266 77 381 24z
m821 -550 l62 -12 -7 -31 c-4 -18 -7 -111 -7 -207 0 -171 1 -176 27 -231 46
-93 134 -141 321 -174 156 -28 301 -18 582 40 322 66 465 66 465 0 0 -92 -404
-353 -768 -495 -81 -32 -83 -32 -104 -14 -29 26 -48 75 -48 123 0 22 -4 42 -9
46 -5 3 -30 0 -54 -7 -56 -15 -97 0 -135 50 -22 28 -27 46 -27 89 0 29 0 53
-1 53 0 0 -40 -14 -90 -30 -100 -34 -232 -60 -306 -60 -73 0 -185 28 -216 55
-24 21 -27 30 -27 84 1 51 -2 61 -15 56 -65 -25 -170 -47 -251 -52 -82 -5
-101 -3 -141 15 -59 26 -80 58 -80 121 1 62 45 194 97 287 55 98 161 201 255
248 118 58 158 66 295 62 66 -3 148 -10 182 -16z m1786 -672 c54 -30 95 -91
103 -151 6 -40 2 -56 -24 -110 -124 -250 -596 -574 -881 -603 -52 -6 -67 -3
-115 20 -76 37 -109 84 -114 161 -3 48 0 71 17 102 26 51 55 72 156 112 193
77 399 215 552 370 65 66 116 108 140 117 48 18 114 11 166 -18z m342 -595
c93 -31 165 -129 165 -223 0 -72 -21 -112 -104 -196 -196 -195 -570 -372 -913
-430 -128 -22 -283 -16 -338 13 -143 75 -178 251 -72 361 46 48 91 68 185 81
250 36 590 171 784 312 137 99 196 115 293 82z m155 -724 c60 -27 88 -54 116
-114 64 -135 4 -245 -205 -380 -326 -210 -906 -335 -1098 -236 -135 69 -172
239 -77 349 49 58 91 73 239 89 270 28 569 125 761 248 32 21 73 44 89 51 45
20 123 17 175 -7z m-55 -768 c51 -34 81 -101 70 -157 -13 -73 -117 -148 -280
-203 -133 -44 -263 -64 -415 -65 -158 0 -214 10 -268 50 -91 69 -82 200 18
258 29 17 50 21 120 19 176 -5 403 34 543 93 116 50 145 50 212 5z m-151 -565
c44 -18 76 -61 76 -102 0 -97 -186 -176 -420 -176 -124 -1 -183 13 -222 52
-48 48 -34 127 29 159 12 6 68 11 125 11 113 1 220 17 313 49 33 11 61 20 63
20 1 1 17 -5 36 -13z"/>
<path d="M4337 9100 c-56 -14 -90 -34 -129 -78 -86 -95 -62 -249 50 -326 56
-38 90 -48 167 -48 87 0 150 27 199 84 94 109 52 275 -87 342 -59 28 -144 39
-200 26z m117 -151 c32 -38 33 -63 1 -94 -53 -54 -155 -18 -155 54 0 43 34 71
86 71 35 0 47 -5 68 -31z"/>
<path d="M9323 14069 c-18 -12 -33 -24 -33 -28 0 -3 11 -23 25 -43 14 -20 25
-41 25 -45 0 -8 -729 -529 -753 -539 -8 -3 -25 12 -41 36 -14 22 -30 40 -36
40 -5 0 -22 -11 -37 -24 -26 -23 -27 -26 -13 -50 38 -63 171 -246 180 -246 5
0 21 11 37 24 l27 24 -28 42 c-15 23 -24 46 -19 50 4 4 127 92 273 195 146
103 280 199 299 213 l34 25 -26 -44 c-13 -24 -84 -156 -157 -294 -73 -137
-164 -305 -202 -373 l-69 -122 56 -80 c31 -44 63 -80 70 -80 8 0 200 131 427
291 455 322 412 300 459 229 l16 -24 32 23 c21 15 31 30 28 40 -6 26 -171 260
-182 261 -5 0 -23 -11 -40 -24 l-29 -24 28 -41 c25 -36 27 -44 15 -56 -20 -20
-581 -416 -584 -413 -3 4 181 348 326 610 60 109 109 201 109 205 0 10 -173
263 -179 263 -4 0 -21 -10 -38 -21z"/>
<path d="M2221 13477 c-90 -167 -225 -405 -292 -513 -38 -62 -69 -118 -69
-125 1 -16 269 -181 281 -173 16 10 71 115 66 128 -3 7 -30 27 -60 44 -65 37
-97 68 -97 95 0 22 49 117 61 117 7 0 777 -446 789 -457 3 -3 -12 -36 -33 -75
-20 -38 -34 -74 -31 -79 6 -10 65 -42 68 -37 15 20 256 450 256 457 0 11 -45
41 -62 41 -7 0 -29 -28 -48 -62 -19 -34 -40 -63 -45 -65 -8 -2 -774 435 -794
453 -8 8 35 77 63 101 35 29 52 27 135 -22 33 -19 64 -35 70 -35 9 0 81 113
81 128 0 8 -273 162 -287 162 -4 0 -28 -37 -52 -83z"/>
<path d="M9973 13028 c-28 -14 -28 -18 -2 -70 11 -22 17 -44 12 -48 -9 -8
-829 -410 -837 -410 -3 0 -14 20 -25 45 -11 25 -23 45 -26 45 -6 0 -66 -29
-73 -36 -2 -1 37 -86 86 -188 56 -115 96 -186 105 -186 8 0 25 9 38 19 22 18
23 22 11 53 -8 18 -16 40 -19 49 -4 13 75 56 384 209 213 106 403 198 421 206
l32 14 22 -45 c12 -25 26 -45 30 -45 15 0 68 30 68 39 0 4 -38 87 -85 184 -89
184 -93 189 -142 165z"/>
<path d="M10243 13000 c-34 -14 -65 -69 -58 -105 12 -66 96 -88 154 -39 26 21
31 33 31 69 0 35 -5 48 -26 64 -28 22 -64 26 -101 11z"/>
<path d="M10226 12507 c-16 -12 -17 -18 -8 -45 11 -32 10 -33 -56 -86 -116
-93 -674 -517 -734 -557 l-57 -39 24 -63 c51 -135 38 -124 124 -107 40 7 757
70 946 82 37 3 41 0 54 -29 8 -18 20 -33 27 -33 22 0 64 23 64 34 1 29 -104
286 -116 286 -24 0 -64 -23 -64 -37 0 -7 7 -30 15 -50 9 -20 12 -40 8 -44 -8
-7 -792 -93 -798 -87 -3 4 638 488 647 488 4 0 17 -27 29 -60 12 -33 25 -60
29 -60 26 0 70 24 70 38 -1 10 -32 98 -69 197 -61 158 -72 180 -93 183 -12 2
-32 -3 -42 -11z"/>
<path d="M2231 11879 c-11 -34 -19 -65 -16 -68 2 -4 49 -24 103 -45 108 -41
142 -64 142 -99 1 -37 -73 -258 -84 -254 -6 2 -198 68 -426 147 -228 79 -420
147 -427 152 -8 7 -5 29 14 84 28 84 25 95 -27 97 l-32 2 -75 -219 c-45 -132
-71 -222 -65 -228 5 -5 24 -11 44 -14 34 -6 35 -5 48 40 7 25 18 46 24 46 13
0 867 -298 874 -305 3 -2 -1 -25 -8 -51 -12 -43 -12 -48 5 -60 17 -12 65 -20
65 -10 0 2 54 161 119 353 l119 350 -174 72 c-95 39 -180 71 -188 71 -8 0 -22
-24 -35 -61z"/>
<path d="M10630 11441 c-23 -7 -25 -11 -22 -63 3 -56 3 -56 -30 -67 -36 -11
-821 -207 -852 -213 -16 -2 -23 6 -34 45 -11 39 -17 47 -37 47 -35 0 -55 -10
-55 -29 0 -22 171 -725 179 -732 6 -7 288 55 298 65 7 7 -18 145 -27 151 -4 2
-33 -2 -66 -10 -82 -20 -118 -19 -139 5 -16 18 -80 249 -71 257 5 5 378 103
392 103 6 0 17 -28 24 -61 12 -57 12 -63 -5 -75 -10 -8 -33 -17 -52 -20 -18
-3 -36 -10 -39 -15 -3 -5 0 -34 7 -65 12 -55 13 -56 43 -51 43 6 308 75 314
82 3 3 0 30 -7 61 l-13 55 -63 -6 -63 -7 -17 57 c-9 31 -15 61 -13 67 4 11
356 103 365 95 7 -7 63 -228 63 -249 0 -31 -36 -56 -112 -78 -40 -12 -74 -23
-76 -25 -1 -1 5 -34 15 -74 12 -49 21 -71 32 -71 21 0 284 71 293 79 4 4 -12
79 -36 166 -23 88 -67 256 -96 373 -30 124 -57 212 -64 211 -6 -1 -22 -4 -36
-8z"/>
<path d="M1266 11249 c-13 -38 -66 -302 -62 -307 3 -2 22 -5 42 -6 35 -1 38 2
46 34 5 19 13 39 18 43 11 12 684 -150 747 -180 62 -29 100 -70 109 -119 14
-77 -16 -169 -70 -207 -23 -16 -48 -23 -101 -25 -59 -2 -126 10 -414 77 -189
44 -347 83 -352 88 -4 4 -4 28 2 52 11 52 5 62 -42 64 l-33 2 -44 -199 c-48
-214 -48 -216 10 -216 23 0 29 6 41 48 10 37 17 47 33 45 10 -1 165 -36 344
-78 179 -42 357 -79 396 -82 138 -11 227 32 281 134 56 105 79 269 53 363 -20
74 -91 141 -190 180 -29 12 -206 57 -393 101 -187 44 -343 82 -347 84 -4 3 -3
25 2 51 6 25 8 47 6 49 -1 2 -20 6 -40 10 -28 5 -39 4 -42 -6z"/>
<path d="M10848 10453 c-14 -3 -16 -13 -11 -58 5 -52 5 -53 -23 -59 -73 -14
-855 -136 -877 -136 -23 0 -26 5 -32 51 l-7 51 -41 -6 c-23 -4 -42 -8 -44 -9
-1 -2 12 -95 30 -208 22 -138 37 -204 45 -203 7 1 26 2 43 3 l30 1 -3 58 -3
57 204 33 c219 36 221 36 221 -18 0 -20 -17 -37 -88 -86 -97 -68 -267 -172
-336 -206 -54 -26 -54 -30 -31 -173 8 -49 15 -93 15 -97 0 -10 52 -10 74 -2
13 5 15 14 10 39 -6 32 -4 33 94 93 54 34 146 97 205 141 l105 79 26 -39 c75
-113 230 -148 391 -88 67 25 101 51 124 97 40 79 38 129 -20 495 l-32 197 -26
-1 c-14 -1 -34 -3 -43 -6z m31 -392 c20 -103 5 -147 -60 -179 -60 -29 -150
-44 -202 -32 -52 11 -87 37 -114 86 -23 41 -42 144 -27 144 5 1 83 14 174 29
91 16 176 28 190 28 23 -2 26 -8 39 -76z"/>
<path d="M1174 10029 c-59 -14 -116 -67 -147 -136 -28 -63 -44 -153 -73 -416
-20 -174 -19 -177 37 -177 29 0 39 15 39 61 0 18 6 32 16 36 14 5 811 -87 896
-103 27 -5 28 -7 22 -58 l-6 -53 38 -6 c21 -4 41 -3 45 1 10 12 59 443 59 523
0 173 -69 266 -218 298 -114 24 -200 8 -266 -50 -24 -21 -49 -52 -56 -69 -16
-38 -27 -38 -35 -1 -9 43 -68 106 -122 129 -57 24 -171 35 -229 21z m180 -220
c91 -34 127 -94 118 -200 l-4 -55 -192 24 c-105 14 -195 28 -199 32 -13 11 12
143 32 170 10 14 29 31 42 37 38 20 141 16 203 -8z m511 -20 c101 -28 141 -92
131 -209 -3 -41 -9 -77 -14 -81 -4 -4 -95 3 -202 17 -107 13 -200 24 -207 24
-13 0 -8 61 12 135 14 49 46 89 90 113 26 15 139 15 190 1z"/>
<path d="M10703 9330 c-124 -26 -184 -94 -262 -297 -40 -104 -81 -159 -134
-184 -87 -39 -208 -13 -243 53 -26 48 -25 139 2 175 33 45 79 65 155 71 78 5
74 -3 62 116 l-6 68 -76 -4 c-165 -10 -238 -91 -248 -275 -16 -270 96 -423
308 -423 190 0 281 75 375 313 52 133 81 170 145 187 52 14 132 7 166 -15 35
-23 56 -80 50 -134 -8 -75 -79 -121 -184 -121 l-43 0 0 -59 c0 -32 3 -73 6
-90 6 -30 8 -31 58 -31 127 0 212 55 242 156 25 88 17 262 -17 334 -35 75 -70
114 -126 140 -53 25 -163 34 -230 20z"/>
<path d="M910 8945 l0 -165 40 0 c39 0 40 1 40 34 0 70 -16 66 274 65 143 -1
308 -4 366 -8 l105 -6 -355 -171 c-195 -95 -383 -184 -417 -199 l-63 -28 -2
-143 c-1 -79 -2 -152 -2 -161 -1 -14 8 -19 41 -21 l42 -3 3 53 3 53 455 -3
c250 -2 463 -6 473 -8 13 -4 17 -16 17 -54 0 -50 9 -60 55 -60 30 0 35 27 35
201 l0 139 -45 0 -45 0 0 -50 c0 -33 -4 -50 -12 -51 -41 -4 -568 2 -640 7
l-87 7 332 162 c183 89 369 177 414 196 92 39 93 39 93 175 l0 71 -67 6 c-38
4 -176 8 -308 8 -132 1 -332 5 -445 8 l-205 6 -3 53 -3 52 -45 0 -44 0 0 -165z"/>
<path d="M9987 8494 c-4 -4 -7 -99 -7 -211 l0 -203 45 0 45 0 0 50 c0 43 3 50
23 55 12 3 222 4 467 3 l445 -3 3 -52 3 -53 45 0 44 0 -2 208 -3 207 -40 0
-40 0 -3 -50 c-2 -27 -9 -53 -15 -57 -7 -4 -212 -8 -457 -8 -245 0 -450 4
-457 8 -6 4 -13 30 -15 57 -3 49 -3 50 -38 53 -20 2 -39 0 -43 -4z"/>
<path d="M11234 8340 c-52 -21 -69 -88 -34 -133 40 -51 136 -43 166 15 41 79
-43 154 -132 118z"/>
<path d="M1937 8074 c-3 -4 -4 -18 -1 -33 4 -17 0 -31 -8 -38 -17 -14 -916
-351 -958 -359 -17 -4 -34 -12 -36 -19 -3 -6 -1 -52 3 -101 l8 -89 108 -18
c59 -10 292 -62 519 -115 l412 -97 9 -38 c8 -34 12 -37 43 -37 22 0 37 6 41
15 3 9 2 77 -3 153 l-9 137 -42 3 -43 3 0 -50 c0 -34 -4 -51 -12 -51 -7 0 -71
11 -143 25 -71 14 -130 25 -131 25 -1 0 -5 46 -8 103 -4 56 -9 123 -12 148
l-6 47 59 20 c32 11 95 34 140 51 l82 30 7 -49 7 -50 38 0 c21 0 40 3 42 8 3
4 -1 81 -9 172 -7 91 -13 175 -13 188 -1 19 -6 22 -39 22 -21 0 -41 -3 -45 -6z
m-355 -586 c3 -43 0 -68 -7 -68 -21 0 -360 74 -368 80 -4 4 74 38 175 76 l183
69 7 -45 c3 -25 8 -75 10 -112z"/>
<path d="M10766 7909 c-3 -17 -6 -53 -6 -79 l0 -47 79 -7 c114 -10 131 -26
131 -117 l0 -69 -37 5 c-21 3 -222 21 -448 41 -225 19 -416 37 -424 40 -10 3
-13 22 -9 84 5 86 3 90 -53 90 -16 0 -29 -5 -29 -12 -1 -7 -11 -124 -23 -260
-13 -135 -21 -251 -19 -257 2 -6 21 -11 43 -11 43 0 45 3 52 98 2 29 8 57 13
61 5 5 213 -10 462 -33 l454 -40 -7 -56 c-4 -30 -11 -62 -16 -71 -14 -27 -59
-37 -140 -31 l-76 4 -7 -32 c-12 -64 -7 -118 12 -124 9 -3 83 -8 164 -12 l147
-7 5 34 c3 19 8 84 11 144 3 61 15 211 27 335 11 124 21 247 22 275 l1 50
-150 17 c-82 9 -155 17 -161 17 -6 1 -14 -13 -18 -30z"/>
<path d="M9845 6716 c-32 -207 -56 -378 -53 -381 6 -7 261 -55 289 -55 14 0
20 14 29 70 6 38 9 73 6 78 -3 5 -31 12 -62 16 -30 3 -69 13 -85 22 -48 24
-52 51 -30 186 11 66 21 121 23 123 2 2 248 -37 376 -60 l34 -6 -7 -52 c-12
-84 -17 -89 -84 -81 l-58 6 -6 -47 c-12 -84 -13 -82 51 -90 31 -4 107 -15 167
-26 61 -10 113 -19 117 -19 6 0 11 18 24 92 l6 36 -46 7 c-69 11 -80 22 -72
81 12 82 2 80 200 48 97 -15 180 -30 185 -33 8 -6 -18 -202 -34 -250 -11 -36
-41 -44 -130 -37 -94 8 -90 11 -101 -83 l-6 -60 33 -5 c81 -14 241 -36 263
-36 22 0 24 5 40 126 9 69 34 239 55 377 22 139 37 254 36 255 -2 2 -21 6 -43
9 l-39 5 -7 -46 c-4 -26 -13 -49 -19 -52 -12 -4 -877 131 -905 141 -10 4 -13
20 -10 58 l3 52 -41 3 -40 3 -59 -375z"/>
<path d="M1153 6926 c-83 -17 -154 -34 -157 -37 -4 -3 5 -55 18 -115 21 -93
86 -471 113 -654 7 -47 11 -55 28 -53 11 1 85 12 164 24 l143 22 -6 63 c-9 85
-14 97 -40 90 -11 -3 -54 -9 -94 -13 -61 -5 -75 -3 -92 12 -18 16 -47 121 -37
131 3 3 206 42 452 86 337 61 449 78 455 69 4 -7 13 -44 20 -83 l12 -70 35 5
c20 4 38 9 41 12 6 5 -75 501 -83 515 -2 4 -21 4 -42 1 l-38 -7 4 -44 c3 -25
5 -63 5 -85 l1 -40 -430 -77 c-236 -42 -440 -77 -452 -77 -19 -1 -22 6 -28 53
-12 95 5 113 128 136 37 7 69 15 71 19 7 12 -19 144 -29 147 -6 1 -78 -12
-162 -30z"/>
<path d="M9828 6080 c-99 -30 -162 -119 -203 -288 -22 -92 -17 -200 13 -258
46 -91 160 -154 289 -162 129 -8 210 37 338 188 97 114 126 135 186 134 104
-1 189 -61 189 -132 -1 -58 -33 -119 -75 -139 -31 -15 -43 -15 -98 -5 -108 21
-98 26 -125 -62 -13 -43 -20 -82 -15 -87 13 -12 123 -39 163 -39 129 1 235
152 247 350 3 50 1 103 -6 127 -30 109 -144 189 -282 200 -131 10 -192 -23
-323 -176 -105 -122 -141 -146 -216 -146 -73 1 -155 45 -183 99 -48 92 31 226
134 226 19 0 59 -7 88 -16 30 -8 57 -12 61 -7 13 16 50 157 43 164 -13 13
-125 39 -163 38 -19 0 -47 -4 -62 -9z"/>
<path d="M1970 6066 c-71 -20 -123 -51 -164 -96 -48 -54 -72 -111 -92 -218
-39 -216 -52 -250 -111 -285 -42 -24 -118 -37 -159 -25 -65 18 -111 126 -80
186 21 41 60 67 129 87 31 9 57 21 57 27 0 5 -10 44 -22 85 l-22 75 -39 -5
c-58 -8 -147 -57 -182 -100 -27 -35 -30 -47 -33 -120 -8 -172 70 -342 181
-399 119 -60 327 -6 403 105 36 53 51 102 74 239 32 192 59 232 175 263 90 23
151 1 184 -68 27 -55 27 -120 1 -163 -22 -34 -81 -69 -139 -80 -18 -4 -35 -13
-38 -20 -3 -7 5 -48 18 -90 l23 -76 40 6 c100 16 191 86 215 165 36 121 -23
350 -115 444 -21 21 -51 46 -68 54 -40 21 -177 27 -236 9z"/>
<path d="M2453 5335 l-32 -14 16 -46 c9 -27 12 -50 7 -55 -15 -15 -857 -321
-869 -316 -6 2 -17 22 -25 45 -7 23 -19 41 -25 41 -26 0 -76 -23 -73 -34 2 -6
32 -94 68 -195 l65 -183 34 6 c50 8 56 18 38 70 -12 34 -13 47 -4 54 12 9 830
309 856 314 9 2 21 -13 30 -39 9 -23 19 -45 23 -48 9 -10 78 17 77 30 -1 24
-135 379 -144 381 -5 2 -24 -3 -42 -11z"/>
<path d="M9495 5338 c-3 -7 -12 -33 -21 -58 -8 -25 -38 -107 -65 -183 l-49
-138 36 -15 c42 -18 49 -14 64 34 7 20 16 40 19 45 7 7 865 -304 880 -318 3
-3 -3 -27 -12 -52 -20 -52 -15 -61 34 -69 l34 -6 69 192 c37 105 66 193 64
194 -13 12 -50 26 -66 26 -13 0 -22 -11 -31 -40 -6 -21 -16 -42 -21 -45 -8 -5
-863 305 -876 317 -2 3 3 24 11 48 20 56 20 54 -18 68 -42 15 -47 15 -52 0z"/>
<path d="M1296 4785 c-30 -28 -36 -87 -11 -122 21 -30 74 -39 113 -19 62 32
79 91 41 140 -29 37 -104 37 -143 1z"/>
<path d="M10585 4758 c-31 -18 -44 -40 -45 -73 0 -43 24 -73 72 -85 46 -13 92
0 108 31 11 20 13 69 4 94 -15 37 -97 57 -139 33z"/>
<path d="M6947 2134 c-59 -18 -122 -78 -136 -131 -6 -21 -11 -68 -11 -105 l0
-68 85 0 85 0 0 56 c0 77 18 130 53 160 35 29 56 30 89 5 32 -25 48 -81 48
-165 0 -116 -42 -175 -130 -184 l-50 -5 0 -48 0 -49 48 0 c98 0 146 -51 158
-166 14 -128 -39 -244 -110 -244 -66 0 -106 58 -106 155 l0 55 -85 0 -85 0 0
-70 c0 -85 15 -125 63 -167 51 -45 98 -58 207 -58 77 1 104 5 145 23 91 42
136 105 155 215 23 133 -19 248 -107 291 -47 23 -52 32 -24 41 34 11 80 73 97
132 42 144 -22 293 -140 328 -63 19 -186 18 -249 -1z"/>
<path d="M4851 2110 c-18 -16 -76 -48 -127 -72 l-94 -43 0 -37 c0 -44 4 -45
95 -23 106 26 95 65 95 -353 0 -273 -3 -371 -12 -380 -7 -7 -44 -12 -95 -12
l-83 0 0 -40 0 -40 275 0 275 0 0 40 0 40 -84 0 c-62 0 -87 4 -96 15 -10 12
-11 105 -6 433 3 229 9 436 12 460 l6 42 -63 0 c-56 -1 -68 -5 -98 -30z"/>
<path d="M5260 1656 l0 -166 65 0 65 0 0 69 c0 53 4 74 19 92 18 23 25 24 171
27 l151 3 -14 -33 c-8 -18 -32 -69 -52 -113 -94 -203 -295 -702 -295 -732 0
-10 23 -13 94 -13 82 0 95 2 100 18 2 9 16 64 30 122 35 151 117 415 192 621
39 109 64 194 64 218 l0 41 -203 0 c-112 0 -245 3 -295 6 l-92 7 0 -167z"/>
<path d="M6040 1656 l0 -166 65 0 65 0 0 73 c0 39 4 77 8 84 15 24 67 33 197
33 l134 0 -61 -132 c-113 -249 -298 -711 -298 -746 0 -8 28 -12 94 -12 l94 0
36 145 c46 183 110 390 192 620 36 101 64 196 64 217 l0 38 -203 0 c-112 0
-245 3 -295 6 l-92 7 0 -167z"/>
</g>
</svg>
